<svg width="560" height="96" viewBox="0 0 560 96" fill="none" xmlns="http://www.w3.org/2000/svg" role="img" aria-labelledby="title desc">
  <title id="title">Astral Helio Logo</title>
  <desc id="desc">Production-ready Astral Helio horizontal logo with an original solar graph mark.</desc>
  <defs>
    <linearGradient id="ah-ring" x1="10" y1="8" x2="86" y2="88" gradientUnits="userSpaceOnUse">
      <stop offset="0" stop-color="#7DF6FF"/>
      <stop offset="0.42" stop-color="#3FE3A6"/>
      <stop offset="1" stop-color="#5572F7"/>
    </linearGradient>
    <linearGradient id="ah-core" x1="25" y1="24" x2="70" y2="72" gradientUnits="userSpaceOnUse">
      <stop offset="0" stop-color="#FFF076"/>
      <stop offset="0.46" stop-color="#39E5C0"/>
      <stop offset="1" stop-color="#2D7FF9"/>
    </linearGradient>
    <linearGradient id="ah-word" x1="112" y1="25" x2="407" y2="69" gradientUnits="userSpaceOnUse">
      <stop offset="0" stop-color="#102033"/>
      <stop offset="0.55" stop-color="#172842"/>
      <stop offset="1" stop-color="#0D6F88"/>
    </linearGradient>
    <clipPath id="ah-ring-cut">
      <path fill-rule="evenodd" clip-rule="evenodd" d="M48 91C71.7482 91 91 71.7482 91 48C91 24.2518 71.7482 5 48 5C24.2518 5 5 24.2518 5 48C5 71.7482 24.2518 91 48 91ZM48 79C65.1208 79 79 65.1208 79 48C79 30.8792 65.1208 17 48 17C30.8792 17 17 30.8792 17 48C17 65.1208 30.8792 79 48 79Z"/>
    </clipPath>
    <filter id="ah-glow" x="9" y="9" width="78" height="78" filterUnits="userSpaceOnUse" color-interpolation-filters="sRGB">
      <feGaussianBlur stdDeviation="4"/>
    </filter>
  </defs>

  <g id="mark">
    <circle cx="48" cy="48" r="31" fill="url(#ah-core)" opacity="0.18" filter="url(#ah-glow)"/>
    <g clip-path="url(#ah-ring-cut)">
      <path d="M16.6 56.5C23.3 76.3 48.9 86.9 69.1 77.3C89.2 67.8 98.2 44.2 87 25.5" stroke="url(#ah-ring)" stroke-width="8" stroke-linecap="round"/>
      <path d="M13.4 38.7C20.1 19.4 42 9.3 61.9 14.5C81.8 19.8 94.6 39.5 90.4 60.8" stroke="#2449D8" stroke-width="7" stroke-linecap="round" opacity="0.86"/>
      <path d="M22.4 74.8C7.6 57.4 7.9 32.6 23.3 16.4" stroke="#20D59B" stroke-width="7" stroke-linecap="round" opacity="0.92"/>
    </g>

    <path d="M29.6 58.8L42.6 37.6L61.1 43.1L67.8 62.4L46.4 68.8L29.6 58.8Z" stroke="#102033" stroke-width="4" stroke-linecap="round" stroke-linejoin="round"/>
    <path d="M42.6 37.6L46.4 68.8M61.1 43.1L29.6 58.8" stroke="#102033" stroke-width="2.35" stroke-linecap="round" opacity="0.68"/>
    <circle cx="29.6" cy="58.8" r="5.6" fill="#102033"/>
    <circle cx="42.6" cy="37.6" r="5.6" fill="#102033"/>
    <circle cx="61.1" cy="43.1" r="5.6" fill="#102033"/>
    <circle cx="67.8" cy="62.4" r="5.6" fill="#102033"/>
    <circle cx="46.4" cy="68.8" r="5.6" fill="#102033"/>
    <circle cx="42.6" cy="37.6" r="2.15" fill="#FFF076"/>
    <circle cx="61.1" cy="43.1" r="2.15" fill="#39E5C0"/>
    <circle cx="29.6" cy="58.8" r="2.15" fill="#7DF6FF"/>
    <circle cx="67.8" cy="62.4" r="2.15" fill="#66E6A6"/>
    <circle cx="46.4" cy="68.8" r="2.15" fill="#5572F7"/>
    <path d="M48 22.5L51.8 34L63.3 37.8L51.8 41.6L48 53.1L44.2 41.6L32.7 37.8L44.2 34L48 22.5Z" fill="#FFF6A3"/>
    <path d="M75 22.2L77 27.4L82.2 29.4L77 31.4L75 36.6L73 31.4L67.8 29.4L73 27.4L75 22.2Z" fill="#2D7FF9"/>
  </g>

  <g id="wordmark" fill="url(#ah-word)">
    <path fill-rule="evenodd" clip-rule="evenodd" d="M112.42 58.14 L124.094 27.611 L127.747 27.611 L139.421 58.14 L133.227 58.14 L125.92 37.291 L118.614 58.14 Z M118.026 53.248 L118.026 47.705 L134.088 47.705 L134.088 53.248 Z M151.116 58.455 C149.156 58.455 147.291 58.192 145.52 57.667 C143.75 57.142 142.241 56.411 140.996 55.473 L144.544 51.043 C145.594 51.715 146.693 52.233 147.84 52.597 C148.988 52.961 150.08 53.143 151.116 53.143 C152.46 53.143 153.502 52.992 154.244 52.691 C154.986 52.39 155.357 51.974 155.357 51.442 C155.357 50.798 155.102 50.357 154.591 50.119 C154.08 49.881 153.411 49.724 152.585 49.647 C151.76 49.57 150.885 49.468 149.961 49.342 C149.023 49.216 148.096 49.066 147.179 48.891 C146.262 48.716 145.426 48.429 144.67 48.03 C143.914 47.631 143.312 47.029 142.864 46.224 C142.416 45.42 142.192 44.324 142.192 42.938 C142.192 40.741 142.969 39.04 144.523 37.836 C146.077 36.633 148.274 36.031 151.116 36.031 C152.781 36.031 154.423 36.276 156.039 36.766 C157.656 37.256 159.101 37.948 160.375 38.844 L156.953 43.022 C156.001 42.491 155.007 42.078 153.971 41.784 C152.935 41.49 151.942 41.343 150.99 41.343 C149.828 41.343 148.925 41.472 148.281 41.731 C147.637 41.99 147.315 42.365 147.315 42.854 C147.315 43.274 147.539 43.589 147.987 43.799 C148.435 44.009 149.023 44.16 149.751 44.251 C150.479 44.342 151.263 44.436 152.103 44.534 C153.068 44.646 154.041 44.783 155.021 44.944 C156.001 45.105 156.9 45.395 157.719 45.815 C158.538 46.235 159.199 46.872 159.703 47.726 C160.207 48.579 160.459 49.755 160.459 51.253 C160.459 53.535 159.644 55.305 158.013 56.565 C156.382 57.825 154.083 58.455 151.116 58.455 Z M171.167 58.245 C169.235 58.245 167.832 57.748 166.957 56.754 C166.082 55.76 165.645 54.332 165.645 52.471 L165.645 30.005 L171.398 30.005 L171.398 51.043 C171.398 51.561 171.503 51.967 171.713 52.261 C171.923 52.555 172.231 52.702 172.637 52.702 L174.065 52.702 L174.065 58.245 Z M163.398 41.259 L163.398 36.346 L174.065 36.346 L174.065 41.259 Z M179.104 58.14 L179.104 36.346 L185.276 36.346 L185.276 58.14 Z M191.365 42.414 C191.085 42.134 190.742 41.924 190.336 41.784 C189.931 41.644 189.462 41.574 188.93 41.574 C187.768 41.574 186.869 41.948 186.232 42.697 C185.595 43.446 185.276 44.485 185.276 45.815 L184.835 40.146 C185.437 38.858 186.214 37.85 187.166 37.123 C188.118 36.395 189.175 36.031 190.336 36.031 C191.232 36.031 192.048 36.174 192.783 36.461 C193.517 36.748 194.165 37.172 194.725 37.731 Z M209.443 58.14 L209.443 44.324 C209.443 43.316 209.11 42.54 208.446 41.994 C207.781 41.448 206.825 41.175 205.58 41.175 C204.768 41.175 203.963 41.304 203.165 41.563 C202.367 41.822 201.66 42.197 201.044 42.687 L197.475 39.18 C198.357 38.186 199.508 37.413 200.929 36.86 C202.35 36.307 203.928 36.031 205.664 36.031 C208.519 36.031 210.734 36.738 212.309 38.151 C213.884 39.565 214.671 41.56 214.671 44.135 L214.671 58.14 Z M203.375 58.455 C201.051 58.455 199.309 57.902 198.147 56.796 C196.985 55.69 196.404 53.996 196.404 51.715 C196.404 49.545 197.052 47.925 198.346 46.854 C199.641 45.783 201.583 45.248 204.173 45.248 L209.632 45.248 L209.926 49.636 L204.194 49.636 C203.326 49.636 202.675 49.804 202.241 50.14 C201.807 50.476 201.59 51.001 201.59 51.715 C201.59 52.429 201.863 52.957 202.409 53.3 C202.955 53.643 203.781 53.814 204.887 53.814 C206.412 53.814 207.553 53.639 208.309 53.29 C209.065 52.94 209.443 52.394 209.443 51.652 L209.884 54.822 C209.8 55.648 209.429 56.33 208.771 56.869 C208.113 57.408 207.305 57.807 206.346 58.066 C205.387 58.325 204.397 58.455 203.375 58.455 Z M226.093 27.611 L226.093 50.938 C226.093 51.456 226.243 51.862 226.544 52.156 C226.845 52.45 227.276 52.597 227.835 52.597 L228.801 52.597 L228.801 58.14 L225.862 58.14 C224.112 58.14 222.754 57.636 221.789 56.628 C220.823 55.62 220.34 54.199 220.34 52.366 L220.34 27.611 Z"/>
    <path fill-rule="evenodd" clip-rule="evenodd" d="M284.122 58.14 L284.122 27.611 L288.405 27.611 L288.405 58.14 Z M266.779 58.14 L266.779 27.611 L271.063 27.611 L271.063 58.14 Z M269.446 45.143 L269.446 41.07 L286.39 41.07 L286.39 45.143 Z M304.467 58.455 C301.43 58.455 299.078 57.608 297.413 55.914 C295.747 54.22 294.914 51.813 294.914 48.691 L294.914 46.235 C294.914 42.987 295.715 40.475 297.318 38.697 C298.921 36.92 301.178 36.031 304.089 36.031 C306.833 36.031 308.957 37.039 310.462 39.054 C311.966 41.07 312.719 43.897 312.719 47.537 L312.719 48.964 L298.022 48.964 L298.022 45.521 L308.646 45.521 C308.52 43.757 308.061 42.379 307.27 41.385 C306.479 40.391 305.419 39.894 304.089 39.894 C302.48 39.894 301.227 40.426 300.331 41.49 C299.435 42.554 298.987 44.058 298.987 46.004 L298.987 48.775 C298.987 50.581 299.467 51.967 300.426 52.933 C301.384 53.898 302.732 54.381 304.467 54.381 C305.335 54.381 306.196 54.206 307.05 53.856 C307.904 53.507 308.667 53.017 309.338 52.387 L312.152 55.2 C311.074 56.236 309.863 57.037 308.52 57.604 C307.176 58.171 305.825 58.455 304.467 58.455 Z M322.881 27.611 L322.881 52.513 C322.881 53.031 322.996 53.437 323.227 53.73 C323.458 54.024 323.784 54.171 324.204 54.171 L326.219 54.171 L326.219 58.245 L323.7 58.245 C322.09 58.245 320.837 57.741 319.941 56.733 C319.046 55.725 318.598 54.304 318.598 52.471 L318.598 27.611 Z M331.048 31.895 L331.048 27.611 L335.332 27.611 L335.332 31.895 Z M331.048 58.14 L331.048 36.346 L335.332 36.346 L335.332 58.14 Z M350.197 58.455 C347.341 58.455 345.13 57.625 343.562 55.967 C341.994 54.308 341.21 51.974 341.21 48.964 L341.21 45.416 C341.21 42.435 341.994 40.125 343.562 38.487 C345.13 36.85 347.341 36.031 350.197 36.031 C353.052 36.031 355.264 36.85 356.832 38.487 C358.399 40.125 359.183 42.435 359.183 45.416 L359.183 49.027 C359.183 52.023 358.399 54.343 356.832 55.988 C355.264 57.632 353.052 58.455 350.197 58.455 Z M350.197 54.381 C351.695 54.381 352.853 53.912 353.672 52.975 C354.491 52.037 354.9 50.721 354.9 49.027 L354.9 45.416 C354.9 43.722 354.491 42.414 353.672 41.49 C352.853 40.566 351.695 40.104 350.197 40.104 C348.713 40.104 347.558 40.566 346.732 41.49 C345.907 42.414 345.494 43.722 345.494 45.416 L345.494 49.027 C345.494 50.721 345.907 52.037 346.732 52.975 C347.558 53.912 348.713 54.381 350.197 54.381 Z"/>
    <path d="M248 31V65" stroke="#39E5C0" stroke-width="2.5" stroke-linecap="round" opacity="0.92"/>
    <circle cx="404" cy="48" r="4.5" fill="#39E5C0"/>
    <circle cx="420" cy="48" r="4.5" fill="#2D7FF9"/>
    <circle cx="436" cy="48" r="4.5" fill="#FFE56E"/>
  </g>
</svg>
