<svg width="160" height="160" viewBox="0 0 160 160" fill="none" xmlns="http://www.w3.org/2000/svg" role="img" aria-labelledby="title desc">
  <title id="title">Astral Helio Mark</title>
  <desc id="desc">Original Astral Helio icon: radiant solar ring with connected graph nodes.</desc>
  <defs>
    <linearGradient id="ah-core" x1="39" y1="35" x2="123" y2="124" gradientUnits="userSpaceOnUse">
      <stop offset="0" stop-color="#FFE56E"/>
      <stop offset="0.45" stop-color="#39E5C0"/>
      <stop offset="1" stop-color="#2D7FF9"/>
    </linearGradient>
    <linearGradient id="ah-orbit" x1="13" y1="22" x2="138" y2="138" gradientUnits="userSpaceOnUse">
      <stop offset="0" stop-color="#89F7FE"/>
      <stop offset="0.5" stop-color="#66E6A6"/>
      <stop offset="1" stop-color="#5C7CFA"/>
    </linearGradient>
    <filter id="ah-soft-glow" x="8" y="8" width="144" height="144" filterUnits="userSpaceOnUse" color-interpolation-filters="sRGB">
      <feGaussianBlur stdDeviation="6"/>
    </filter>
    <clipPath id="ah-ring-cut">
      <path fill-rule="evenodd" clip-rule="evenodd" d="M80 146C116.451 146 146 116.451 146 80C146 43.5492 116.451 14 80 14C43.5492 14 14 43.5492 14 80C14 116.451 43.5492 146 80 146ZM80 127C105.957 127 127 105.957 127 80C127 54.0426 105.957 33 80 33C54.0426 33 33 54.0426 33 80C33 105.957 54.0426 127 80 127Z"/>
    </clipPath>
  </defs>
  <circle cx="80" cy="80" r="58" fill="#48DDB8" opacity="0.14"/>
  <circle cx="80" cy="80" r="45" fill="url(#ah-core)" opacity="0.18" filter="url(#ah-soft-glow)"/>
  <g clip-path="url(#ah-ring-cut)" opacity="0.96">
    <path d="M29 94C39 123 77 139 108 125C139 111 153 74 137 45" stroke="url(#ah-orbit)" stroke-width="12" stroke-linecap="round"/>
    <path d="M23 65C33 35 67 19 98 27C129 35 149 66 143 99" stroke="#2449D8" stroke-width="10" stroke-linecap="round" opacity="0.84"/>
    <path d="M38 121C16 95 16 57 39 32" stroke="#20D59B" stroke-width="10" stroke-linecap="round" opacity="0.9"/>
  </g>
  <path d="M49.5 96.5L70.5 63.5L100 72.5L110.5 102.5L76 112.5L49.5 96.5Z" stroke="#122033" stroke-width="5.5" stroke-linecap="round" stroke-linejoin="round"/>
  <path d="M70.5 63.5L76 112.5M100 72.5L49.5 96.5" stroke="#122033" stroke-width="3.25" stroke-linecap="round" opacity="0.68"/>
  <circle cx="49.5" cy="96.5" r="8.5" fill="#122033"/>
  <circle cx="70.5" cy="63.5" r="8.5" fill="#122033"/>
  <circle cx="100" cy="72.5" r="8.5" fill="#122033"/>
  <circle cx="110.5" cy="102.5" r="8.5" fill="#122033"/>
  <circle cx="76" cy="112.5" r="8.5" fill="#122033"/>
  <circle cx="70.5" cy="63.5" r="3.2" fill="#FFE56E"/>
  <circle cx="100" cy="72.5" r="3.2" fill="#39E5C0"/>
  <circle cx="49.5" cy="96.5" r="3.2" fill="#89F7FE"/>
  <circle cx="110.5" cy="102.5" r="3.2" fill="#66E6A6"/>
  <circle cx="76" cy="112.5" r="3.2" fill="#5C7CFA"/>
  <path d="M80 39L86.1 55.7L102.8 61.8L86.1 67.9L80 84.6L73.9 67.9L57.2 61.8L73.9 55.7L80 39Z" fill="#FFF6A3"/>
  <path d="M124 35L127 43L135 46L127 49L124 57L121 49L113 46L121 43L124 35Z" fill="#2D7FF9"/>
</svg>
